<?xml version="1.0" ?><!DOCTYPE svg  PUBLIC '-//W3C//DTD SVG 1.1//EN'  'http://www.w3.org/Graphics/SVG/1.1/DTD/svg11.dtd'><svg enable-background="new 0 0 1024 1024" height="1024px" id="Soundcloud_1_" version="1.1" viewBox="0 0 1024 1024" width="1024px" xml:space="preserve" xmlns="http://www.w3.org/2000/svg" xmlns:xlink="http://www.w3.org/1999/xlink"><g id="Background"><g id="bg_1_"><path d="M75.094,306.009c0-27.5,19.413-61.375,43.14-75.277L468.861,25.286c23.727-13.902,62.553-13.902,86.28,0    l350.625,205.445c23.729,13.902,43.141,47.777,43.141,75.277v412c0,27.5-19.412,61.375-43.141,75.277L555.141,998.731    c-23.727,13.901-62.553,13.901-86.28,0L118.234,793.286c-23.727-13.902-43.14-47.777-43.14-75.277V306.009z" fill="#FF6A22"/></g><path d="M938.092,262.262c0,0-1.043-2.021-3.287-5.308   c-1.818-2.663-3.744-5.561-6.111-8.186c-5-5.547-6.697-6.941-7.377-7.551c-2.637-2.355-5.848-4.802-8.945-6.617   c-2.26-1.324-362.889-212.631-362.889-212.631s-6.123-3.544-11.67-5.321s-9.457-2.56-13.51-3.129   c-4.053-0.568-9.672-0.854-13.298-0.854c-3.626,0-12.089,0.712-15.716,1.565c-3.626,0.853-6.275,1.511-7.235,1.83   c-0.96,0.32-3.173,1.094-4.08,1.387c-0.905,0.294-5.093,2.16-5.333,2.294c-0.239,0.133-1.643,0.776-2.431,1.238   c-0.789,0.462-351.617,206.025-351.617,206.025s-14.797,8.097-20.628,13.074c-2.497,2.131-5.266,4.866-7.658,7.582   c-3.196,3.627-5.807,7.202-7.026,9.093c-0.923,1.431-2.28,3.533-3.494,5.707c-1.577,2.825-3.032,5.837-3.667,7.146   c-1.162,2.398-3.293,8.054-3.827,9.76c-0.533,1.707-1.547,5.534-1.707,6.436c-0.042,0.234-0.693,3.521-0.747,3.911   c-0.053,0.392-0.44,2.92-0.533,4.267c-0.033,0.48-0.211,2.897-0.212,2.969c-0.001,0.072-0.001,429.512-0.001,429.512   s0.349,5.078,0.427,5.635c0.028,0.203,0.453,3.433,0.782,4.837c0.213,0.91,0.64,2.986,0.924,3.981   c0.284,0.995,0.729,2.636,0.96,3.342c0.213,0.653,0.96,2.917,1.209,3.592s1.25,3.247,1.529,3.911   c0.286,0.682,1.813,4.019,1.92,4.23C82.951,756.203,938.092,262.262,938.092,262.262z" enable-background="new    " fill="#FFFFFF" id="bg-light" opacity="0.2"/></g><g id="Soundcloud"><path d="M813.708,553.902c-14.467-71.024-84.832-61.161-100.617-53.928c0,0-3.947-90.423-97.328-114.756   c0,0-48.992-13.81-90.096,10.522V642.68c6.221,0,12.439-0.001,18.66-0.003c15.207-0.003,30.416-0.005,45.625,0.002   c19.34,0.008,38.678-0.005,58.018,0.006c18.703,0.012,37.406,0.024,56.109,0.005c14.379-0.017,28.76-0.058,43.141-0.058   c11.453,0,18.441-3.546,26.891-7.963C794.944,623.781,823.124,600.12,813.708,553.902z" fill="#FFFFFF"/><polygon fill="#FFFFFF" points="486.209,642.676 505.61,642.676 505.61,407.579 486.209,425.335  "/><polygon fill="#FFFFFF" points="446.751,642.676 465.658,642.676 465.658,441.612 446.751,430.432  "/><polygon fill="#FFFFFF" points="407.293,642.676 426.036,642.676 426.036,425.993 407.293,423.033  "/><polygon fill="#FFFFFF" points="367.014,642.676 385.921,642.676 385.921,425.993 367.014,433.556  "/><polygon fill="#FFFFFF" points="327.392,642.676 346.299,642.676 346.299,446.708 327.392,466.438  "/><polygon fill="#FFFFFF" points="287.03,642.676 306.266,642.676 306.266,498.496 287.03,494.304  "/><polygon fill="#FFFFFF" points="247.326,634.379 266.562,642.676 266.562,496.03 247.326,503.675  "/><path d="M228.336,618.596v-99.631C228.336,518.965,183.535,564.26,228.336,618.596z" fill="#FFFFFF"/></g></svg>