<?xml version="1.0" ?><!DOCTYPE svg  PUBLIC '-//W3C//DTD SVG 1.1//EN'  'http://www.w3.org/Graphics/SVG/1.1/DTD/svg11.dtd'><svg enable-background="new 0 0 1024 1024" height="1024px" id="Twich_2_" version="1.1" viewBox="0 0 1024 1024" width="1024px" xml:space="preserve" xmlns="http://www.w3.org/2000/svg" xmlns:xlink="http://www.w3.org/1999/xlink"><g id="Background"><g id="bg"><path d="M64.014,293.264c0-24.063,16.984-53.702,37.745-65.866L474.255,9.139    c20.761-12.164,54.731-12.164,75.492,0l372.496,218.259c20.76,12.164,37.745,41.804,37.745,65.866v437.488    c0,24.062-16.985,53.702-37.745,65.866l-372.496,218.259c-20.761,12.164-54.731,12.164-75.492,0L101.759,796.618    c-20.761-12.164-37.745-41.806-37.745-65.866V293.264L64.014,293.264z" fill="#6441A5"/></g><path d="M948.901,255.927c0,0-1.071-2.074-3.373-5.443   c-1.864-2.73-3.841-5.7-6.267-8.394c-5.126-5.687-6.867-7.118-7.564-7.743c-2.703-2.416-5.994-4.923-9.172-6.784   C920.208,226.204,550.434,9.539,550.434,9.539s-6.277-3.633-11.966-5.456c-5.688-1.823-9.697-2.625-13.854-3.208   S514.699,0,510.98,0s-12.396,0.729-16.114,1.604s-6.436,1.549-7.42,1.877s-3.253,1.121-4.183,1.422   c-0.931,0.301-5.224,2.214-5.469,2.352c-0.246,0.138-1.685,0.796-2.494,1.27c-0.808,0.474-360.533,211.251-360.533,211.251   s-15.173,8.302-21.151,13.405c-2.559,2.186-5.398,4.99-7.852,7.774c-3.278,3.72-5.954,7.385-7.205,9.324   c-0.945,1.466-2.338,3.624-3.582,5.852c-1.617,2.896-3.108,5.984-3.761,7.328c-1.19,2.459-3.376,8.258-3.923,10.008   s-1.587,5.674-1.75,6.6c-0.042,0.239-0.712,3.609-0.766,4.011c-0.055,0.399-0.452,2.994-0.547,4.375   c-0.034,0.491-0.218,2.971-0.218,3.044c-0.001,0.072-0.002,440.404-0.002,440.404s0.356,5.207,0.438,5.778   c0.029,0.207,0.464,3.52,0.802,4.959c0.22,0.933,0.656,3.063,0.948,4.083c0.291,1.021,0.747,2.702,0.984,3.426   c0.219,0.67,0.983,2.991,1.238,3.684c0.257,0.691,1.282,3.33,1.568,4.011c0.293,0.697,1.859,4.119,1.969,4.338   C72.069,762.398,948.901,255.927,948.901,255.927z" enable-background="new    " fill="#FFFFFF" id="bg-light" opacity="0.2"/></g><rect fill="#FFFFFF" height="135.881" width="44.492" x="467.509" y="408.791"/><rect fill="#FFFFFF" height="135.881" width="44.492" x="591.366" y="408.791"/><path d="M297.957,274.109l-33.669,90.187V722.64h125.06v66.139h70.946l62.529-66.139h101.011  l135.881-132.272V274.109H297.957z M715.222,566.317l-79.363,78.161H509.597l-63.733,67.343v-67.343H343.65V318.603h371.571V566.317  z" fill="#FFFFFF" id="Twich_1_"/></svg>